<svg width="234" height="33" viewBox="0 0 234 33" fill="none" xmlns="http://www.w3.org/2000/svg">
<g clip-path="url(#clip0_148_1578)">
<path d="M51.5586 31.7851V10.2202H54.9025V29.1974H64.9345V31.7851H51.5586Z" fill="white"/>
<path d="M68.9853 13.6089C68.3544 13.6089 67.8286 13.4241 67.4079 13.0544C67.0083 12.6642 66.8086 12.1815 66.8086 11.6065C66.8086 11.0314 67.0083 10.559 67.4079 10.1893C67.8286 9.79916 68.3544 9.604 68.9853 9.604C69.6163 9.604 70.1315 9.79916 70.5311 10.1893C70.9517 10.559 71.1621 11.0314 71.1621 11.6065C71.1621 12.1815 70.9517 12.6642 70.5311 13.0544C70.1315 13.4241 69.6163 13.6089 68.9853 13.6089ZM67.3133 31.7851V16.5048H70.6573V31.7851H67.3133Z" fill="white"/>
<path d="M73.3066 31.785V16.5047H76.272L76.5245 19.1849C77.0081 18.2402 77.7127 17.5008 78.6379 16.9668C79.5848 16.4123 80.6674 16.135 81.8873 16.135C83.7804 16.135 85.2632 16.7101 86.3357 17.8602C87.4292 19.0104 87.976 20.7253 87.976 23.005V31.785H84.6634V23.3439C84.6634 20.3864 83.4224 18.9077 80.9412 18.9077C79.7002 18.9077 78.6698 19.339 77.8494 20.2015C77.0502 21.0641 76.6507 22.2964 76.6507 23.8985V31.785H73.3066Z" fill="white"/>
<path d="M97.9939 32.1547C96.4799 32.1547 95.1446 31.8056 93.9878 31.1073C92.8311 30.409 91.9263 29.454 91.2742 28.2423C90.6229 27.0305 90.2969 25.6545 90.2969 24.1142C90.2969 22.5738 90.6229 21.208 91.2742 20.0168C91.9263 18.8051 92.8311 17.8603 93.9878 17.1826C95.1656 16.4843 96.5111 16.1351 98.0259 16.1351C99.2661 16.1351 100.35 16.3713 101.275 16.8437C102.222 17.316 102.958 17.9835 103.484 18.8462V9.604H106.827V31.7851H103.83L103.484 29.413C102.978 30.1318 102.285 30.7684 101.401 31.323C100.518 31.8775 99.3823 32.1547 97.9939 32.1547ZM98.5937 29.3205C100.023 29.3205 101.191 28.8379 102.095 27.8726C103.02 26.9073 103.484 25.6648 103.484 24.145C103.484 22.6046 103.02 21.3621 102.095 20.4173C101.191 19.452 100.023 18.9693 98.5937 18.9693C97.1632 18.9693 95.9854 19.452 95.0603 20.4173C94.1345 21.3621 93.6719 22.6046 93.6719 24.145C93.6719 25.1513 93.8825 26.0447 94.303 26.8252C94.7234 27.6056 95.3021 28.2218 96.0385 28.6736C96.7951 29.1049 97.6468 29.3205 98.5937 29.3205Z" fill="white"/>
<path d="M115.872 32.1546C113.98 32.1546 112.486 31.5796 111.392 30.4295C110.32 29.2793 109.783 27.5644 109.783 25.2847V16.5046H113.128V24.9458C113.128 27.9033 114.368 29.382 116.85 29.382C118.091 29.382 119.111 28.9507 119.91 28.0881C120.709 27.2255 121.109 25.9932 121.109 24.3913V16.5046H124.453V31.7849H121.487L121.235 29.1047C120.752 30.0495 120.036 30.7992 119.09 31.3536C118.164 31.8876 117.092 32.1546 115.872 32.1546Z" fill="white"/>
<path d="M133.77 32.1547C131.793 32.1547 130.163 31.6823 128.88 30.7376C127.597 29.7929 126.861 28.54 126.672 26.9791H130.048C130.215 27.6774 130.616 28.2833 131.246 28.7967C131.877 29.2897 132.708 29.5361 133.739 29.5361C134.748 29.5361 135.484 29.3307 135.947 28.92C136.409 28.5092 136.64 28.0368 136.64 27.5028C136.64 26.7224 136.315 26.1987 135.663 25.9317C135.032 25.6442 134.148 25.3874 133.013 25.1615C132.13 24.9766 131.246 24.7302 130.363 24.4222C129.5 24.1141 128.775 23.6828 128.186 23.1282C127.618 22.5532 127.334 21.783 127.334 20.8177C127.334 19.4827 127.86 18.3737 128.912 17.4905C129.963 16.5869 131.435 16.135 133.328 16.135C135.074 16.135 136.483 16.5458 137.555 17.3673C138.649 18.1888 139.291 19.3492 139.48 20.8485H136.262C136.157 20.1913 135.842 19.6778 135.316 19.3082C134.811 18.9385 134.127 18.7537 133.265 18.7537C132.424 18.7537 131.772 18.9282 131.309 19.2774C130.846 19.606 130.616 20.0373 130.616 20.5713C130.616 21.1053 130.931 21.5263 131.562 21.8343C132.214 22.1424 133.066 22.4197 134.117 22.6662C135.168 22.892 136.136 23.159 137.019 23.4671C137.923 23.7546 138.649 24.1859 139.196 24.761C139.743 25.3361 140.016 26.1781 140.016 27.2872C140.037 28.6838 139.48 29.8442 138.345 30.7684C137.229 31.6926 135.705 32.1547 133.77 32.1547Z" fill="white"/>
<path d="M144.65 31.7851V10.2202H147.994V19.4623H158.689V10.2202H162.033V31.7851H158.689V22.1425H147.994V31.7851H144.65Z" fill="#FEA30C"/>
<path d="M172.549 32.1547C171.014 32.1547 169.646 31.8261 168.447 31.1689C167.27 30.4912 166.345 29.5566 165.671 28.3654C164.998 27.1742 164.662 25.7879 164.662 24.2065C164.662 22.6045 164.988 21.1977 165.639 19.986C166.313 18.7742 167.238 17.8294 168.416 17.1516C169.614 16.4739 171.003 16.135 172.58 16.135C174.116 16.135 175.451 16.4739 176.587 17.1516C177.722 17.8089 178.605 18.692 179.236 19.8011C179.867 20.9101 180.183 22.1321 180.183 23.4671C180.183 23.6725 180.172 23.8985 180.151 24.1449C180.151 24.3708 180.141 24.6275 180.12 24.9151H167.943C168.048 26.3938 168.542 27.5234 169.426 28.3038C170.33 29.0637 171.371 29.4437 172.549 29.4437C173.495 29.4437 174.283 29.2383 174.914 28.8276C175.567 28.3963 176.05 27.8212 176.366 27.1024H179.71C179.289 28.54 178.448 29.7414 177.186 30.7067C175.945 31.672 174.4 32.1547 172.549 32.1547ZM172.549 18.8152C171.434 18.8152 170.446 19.1438 169.583 19.8011C168.721 20.4377 168.195 21.403 168.006 22.6969H176.839C176.776 21.5057 176.345 20.561 175.545 19.8627C174.747 19.1644 173.748 18.8152 172.549 18.8152Z" fill="#FEA30C"/>
<path d="M188.443 32.1547C187.119 32.1547 186.025 31.939 185.163 31.5078C184.301 31.0765 183.659 30.5116 183.238 29.8134C182.818 29.0946 182.607 28.3141 182.607 27.472C182.607 25.9933 183.196 24.8226 184.374 23.96C185.552 23.0974 187.234 22.6662 189.422 22.6662H193.523V22.3889C193.523 21.1977 193.186 20.3043 192.513 19.7087C191.861 19.1131 191.01 18.8152 189.958 18.8152C189.032 18.8152 188.223 19.0412 187.528 19.493C186.856 19.9243 186.446 20.5713 186.298 21.4338H182.955C183.06 20.3248 183.438 19.3801 184.09 18.5996C184.763 17.7986 185.604 17.1928 186.614 16.782C187.645 16.3507 188.769 16.135 189.989 16.135C192.176 16.135 193.87 16.6998 195.069 17.8294C196.268 18.9385 196.867 20.4583 196.867 22.3889V31.785H193.964L193.68 29.1664C193.239 30.0084 192.598 30.717 191.756 31.2921C190.914 31.8672 189.811 32.1547 188.443 32.1547ZM189.106 29.5053C190.01 29.5053 190.768 29.2999 191.378 28.8891C192.009 28.4578 192.492 27.8931 192.829 27.1948C193.186 26.4965 193.407 25.7263 193.491 24.8842H189.769C188.443 24.8842 187.497 25.1102 186.929 25.562C186.383 26.0138 186.109 26.5787 186.109 27.2564C186.109 27.9547 186.372 28.5092 186.897 28.92C187.445 29.3102 188.181 29.5053 189.106 29.5053Z" fill="#FEA30C"/>
<path d="M200.096 31.7851V9.604H203.44V31.7851H200.096Z" fill="#FEA30C"/>
<path d="M213.794 31.785C212.258 31.785 211.038 31.4256 210.134 30.7067C209.229 29.9674 208.777 28.6633 208.777 26.7942V19.2465H206.096V16.5047H208.777L209.188 12.623H212.121V16.5047H216.538V19.2465H212.121V26.7942C212.121 27.6364 212.3 28.2217 212.657 28.5503C213.036 28.8584 213.677 29.0124 214.582 29.0124H216.38V31.785H213.794Z" fill="#FEA30C"/>
<path d="M219.33 31.7851V9.604H222.674V18.9693C223.2 18.0862 223.926 17.3982 224.851 16.9053C225.797 16.3919 226.838 16.1351 227.974 16.1351C229.846 16.1351 231.318 16.7102 232.39 17.8603C233.463 19.0105 234 20.7254 234 23.0051V31.7851H230.687V23.344C230.687 20.3865 229.478 18.9078 227.059 18.9078C225.797 18.9078 224.746 19.3391 223.905 20.2016C223.084 21.0642 222.674 22.2965 222.674 23.8985V31.7851H219.33Z" fill="#FEA30C"/>
<path d="M39.7806 22.6277C39.7806 28.0317 35.3281 32.4125 29.8356 32.4125C24.3432 32.4125 19.8906 28.0317 19.8906 22.6277C19.8906 17.2236 24.3432 12.8428 29.8356 12.8428C35.3281 12.8428 39.7806 17.2236 39.7806 22.6277Z" fill="#FFD917"/>
<path fill-rule="evenodd" clip-rule="evenodd" d="M31.6529 9.90844C31.0588 9.82702 30.4519 9.78488 29.835 9.78488C22.6262 9.78488 16.7822 15.5347 16.7822 22.6276C16.7822 26.2504 18.3069 29.523 20.7594 31.8578C19.3922 32.2195 17.9547 32.4124 16.4714 32.4124C7.3745 32.4124 0 25.1567 0 16.2062C0 7.25577 7.3745 0 16.4714 0C23.2981 0 29.1549 4.08624 31.6529 9.90844Z" fill="#FEA30C"/>
</g>
<defs>
<clipPath id="clip0_148_1578">
<rect width="234" height="33" fill="white"/>
</clipPath>
</defs>
</svg>
