<?xml version="1.0" encoding="UTF-8"?><svg id="Layer_1" xmlns="http://www.w3.org/2000/svg" xmlns:xlink="http://www.w3.org/1999/xlink" viewBox="0 0 1104.6 653.9" width="170" height="100"><defs><style>.cls-1{fill:url(#linear-gradient-2);}.cls-2{fill:url(#linear-gradient);}.cls-3{fill:#fff;}</style><linearGradient id="linear-gradient" x1="329.9" y1="52.3" x2="768.4" y2="623.9" gradientUnits="userSpaceOnUse"><stop offset="0" stop-color="#fff" stop-opacity=".1"/><stop offset="0" stop-color="#fff" stop-opacity=".1"/><stop offset=".2" stop-color="#fff" stop-opacity=".2"/><stop offset=".3" stop-color="#fff" stop-opacity=".3"/><stop offset=".4" stop-color="#fff" stop-opacity=".5"/><stop offset=".5" stop-color="#fff" stop-opacity=".7"/><stop offset=".7" stop-color="#fff"/></linearGradient><linearGradient id="linear-gradient-2" x1="353.8" y1="34" x2="792.3" y2="605.6" gradientUnits="userSpaceOnUse"><stop offset=".3" stop-color="#fff" stop-opacity=".2"/><stop offset=".4" stop-color="#fff" stop-opacity=".2"/><stop offset=".5" stop-color="#fff" stop-opacity=".3"/><stop offset=".6" stop-color="#fff" stop-opacity=".4"/><stop offset=".8" stop-color="#fff" stop-opacity=".6"/><stop offset=".9" stop-color="#fff" stop-opacity=".8"/><stop offset="1" stop-color="#fff"/></linearGradient></defs><path class="cls-2" d="M450.8,134.8c-1.8,6.8,2.2,13.9,8.9,15.7,6.8,1.8,13.8-2.4,15.6-9.1,1.8-6.8-2.2-13.9-8.9-15.7-.6-.2-1.2-.3-1.8-.4-6.2-.7-12.1,3.3-13.7,9.4M411,84.2c-1.7,6.5,2.1,13.1,8.4,14.8,6.4,1.7,13-2.2,14.7-8.6,1.7-6.5-2.1-13.1-8.4-14.8-.6-.2-1.2-.3-1.7-.3-5.9-.7-11.4,3.1-13,8.9M244.3,42.9c-1.4,5.3,1.7,10.8,6.9,12.2.5.1.9.2,1.4.3,4.8.6,9.4-2.6,10.7-7.3,1.4-5.3-1.7-10.8-6.9-12.2-.5-.1-.9-.2-1.4-.3-4.8-.6-9.4,2.6-10.7,7.3M362.9,49.7c-1.6,6.1,1.9,12.3,7.9,14,.5.1,1.1.3,1.6.3,5.5.7,10.8-3,12.2-8.4,1.6-6.1-1.9-12.3-7.9-14-.5-.1-1.1-.2-1.6-.3-5.5-.7-10.8,2.9-12.2,8.4M315.9,23.6c-5.2-.6-10.1,2.8-11.5,7.9-1.5,5.7,1.8,11.6,7.4,13.1,5.7,1.5,11.5-2,13-7.6.7-2.8.4-5.6-1-8.1-1.4-2.5-3.7-4.2-6.4-5-.5-.1-1-.2-1.5-.3Z"/><path class="cls-1" d="M794.1,615.4c-.7,2.7-.4,5.6,1,8.1,1.4,2.5,3.7,4.3,6.4,5,.5.1.9.2,1.4.3h.3c5.1.6,9.9-2.8,11.3-7.8,1.5-5.7-1.8-11.6-7.5-13.1-.5-.1-1-.2-1.5-.3-5.2-.6-10.1,2.8-11.5,7.9M738.1,594.5c-1.6,6.1,1.9,12.3,7.9,14,6,1.6,12.2-2.1,13.8-8.1,1.6-6.1-1.9-12.4-7.9-14-.5-.1-1.1-.2-1.6-.3-5.5-.7-10.8,3-12.2,8.4M852.8,604.7c-.7,2.6-.4,5.3,1,7.6,1.3,2.3,3.4,4,6,4.6,5.3,1.4,10.7-1.8,12.1-7.1,1.4-5.3-1.7-10.8-7-12.2-.5-.1-.9-.2-1.4-.3-4.8-.6-9.4,2.6-10.7,7.3M685.5,555.6c-1.7,6.5,2.1,13.1,8.4,14.9,6.5,1.8,13-2.2,14.7-8.6,1.7-6.4-2.1-13.1-8.4-14.8-.6-.2-1.1-.3-1.7-.3-5.9-.7-11.4,3.1-13,8.9M642.5,508c-1.8,6.8,2.2,13.9,8.9,15.7,6.8,1.8,13.8-2.4,15.6-9.1.9-3.3.4-6.8-1.3-9.7-1.7-3-4.4-5.1-7.7-6-.6-.2-1.2-.3-1.8-.4-6.2-.7-12.1,3.3-13.7,9.4M607.1,453.6c-1.9,7.2,2.3,14.7,9.4,16.6,7.2,1.9,14.5-2.5,16.4-9.6.9-3.5.5-7.1-1.3-10.3-1.8-3.1-4.7-5.4-8.1-6.3-.7-.2-1.3-.3-1.9-.4-6.5-.8-12.8,3.5-14.5,10"/><path class="cls-3" d="M23,518.1v-39.5h6.7v15.9c1.6-3.4,5.3-5.1,11-5.1,9.9,0,14.8,5.1,14.8,15.4v13.3c0,5.2-1.3,9-4,11.4-2.6,2.5-6.7,3.7-12.3,3.7s-9.4-1.3-12.1-3.8c-2.8-2.5-4.1-6.3-4.1-11.3ZM48.8,518v-13.3c0-3.2-.7-5.5-2.1-6.9-1.4-1.4-3.8-2.1-7.4-2.1s-6.2.7-7.6,2c-1.4,1.4-2.1,3.7-2.1,6.9v13.3c0,3.2.7,5.5,2.1,6.9,1.4,1.4,3.9,2.1,7.5,2.1s6-.7,7.4-2.1c1.4-1.4,2.1-3.7,2.1-6.9Z"/><path class="cls-3" d="M65.9,481.7c0-1.2.4-2.2,1.2-3,.8-.8,1.8-1.2,2.9-1.2s2.2.4,3,1.2c.8.8,1.2,1.8,1.2,3s-.4,2.1-1.2,2.9c-.8.8-1.8,1.2-3,1.2s-2.1-.4-2.9-1.2c-.8-.8-1.2-1.8-1.2-2.9ZM73.4,532.6h-6.7v-42.6h6.7v42.6Z"/><path class="cls-3" d="M101,533.2c-5.6,0-9.7-1.3-12.3-3.8-2.6-2.5-3.9-6.4-3.9-11.5v-13.3c0-10.2,5.4-15.3,16.3-15.3s9.7,1.3,12.3,3.8c2.6,2.5,3.9,6.4,3.9,11.5v13.3c0,10.2-5.4,15.3-16.3,15.3ZM110.6,518v-13.3c0-3.2-.7-5.5-2.1-6.9-1.4-1.4-3.9-2.1-7.5-2.1s-6.1.7-7.5,2.1c-1.4,1.4-2.1,3.7-2.1,6.9v13.3c0,3.2.7,5.5,2.1,6.9s3.9,2.1,7.5,2.1,6.1-.7,7.5-2.1,2.1-3.7,2.1-6.9Z"/><path class="cls-3" d="M131.1,496.1h-6.3v-5l6.3-1.1,1.1-7.8h5.6v7.8h13.4v6.1h-13.4v23.8c0,2.6.6,4.5,1.8,5.6,1.2,1.1,3,1.7,5.4,1.7s5.3-.5,7.6-1.4v6.3c-2.3.8-5.1,1.3-8.5,1.3s-7.5-1.1-9.7-3.2c-2.2-2.1-3.3-5.6-3.3-10.3v-23.7Z"/><path class="cls-3" d="M192.9,504.4c0,4.1-.2,7.2-.6,9.4h-24.4v4.8c0,3.1.8,5.3,2.5,6.5,1.7,1.2,4.5,1.8,8.6,1.8s9.2-.7,12.7-2.1v6.3c-3.6,1.4-7.8,2.1-12.7,2.1s-10.7-1.2-13.5-3.5c-2.8-2.3-4.2-6.2-4.2-11.6v-13.3c0-10.3,5.4-15.4,16.1-15.4s9,1.3,11.6,3.8c2.6,2.5,4,6.3,4,11.3ZM167.9,503v5.2h18.6v-5.2c0-5-3.1-7.6-9.3-7.6s-5.5.6-7,1.8c-1.5,1.2-2.3,3.1-2.3,5.7Z"/><path class="cls-3" d="M202.4,518.3v-14c0-4.8,1.4-8.5,4.1-11,2.7-2.6,6.8-3.9,12.3-3.9s7.1.6,10.2,1.8v6.3c-3.1-1.2-6.3-1.8-9.6-1.8s-6.5.6-8,2c-1.5,1.3-2.3,3.5-2.3,6.7v13.8c0,3.2.8,5.5,2.5,6.8,1.6,1.3,4.4,2,8.3,2s6.6-.5,9.9-1.6v6.3c-3.2,1.1-6.6,1.6-10.2,1.6-5.9,0-10.2-1.2-13-3.6-2.8-2.4-4.2-6.2-4.2-11.3Z"/><path class="cls-3" d="M245.9,532.6h-6.7v-54h6.7v15.3c2.1-3,5.8-4.6,11.2-4.6s8.1,1.2,10.6,3.5c2.5,2.3,3.7,5.8,3.7,10.4v29.4h-6.7v-29.8c0-2.5-.7-4.3-2.1-5.4-1.4-1.1-3.6-1.7-6.7-1.7s-6,.7-7.6,2.2c-1.6,1.4-2.4,3.8-2.4,7.2v27.6Z"/><path class="cls-3" d="M289.3,503.1v29.5h-6.7v-29.5c0-9.1,5.4-13.7,16.2-13.7s9.6,1.1,12.2,3.4c2.6,2.3,3.8,5.7,3.8,10.3v29.5h-6.7v-29.5c0-2.6-.7-4.5-2-5.7-1.3-1.1-3.8-1.7-7.3-1.7s-6.1.6-7.4,1.7c-1.4,1.1-2.1,3-2.1,5.6Z"/><path class="cls-3" d="M341.6,533.2c-5.6,0-9.7-1.3-12.3-3.8-2.6-2.5-3.9-6.4-3.9-11.5v-13.3c0-10.2,5.4-15.3,16.3-15.3s9.7,1.3,12.3,3.8c2.6,2.5,3.9,6.4,3.9,11.5v13.3c0,10.2-5.4,15.3-16.3,15.3ZM351.2,518v-13.3c0-3.2-.7-5.5-2.1-6.9-1.4-1.4-3.9-2.1-7.5-2.1s-6.1.7-7.5,2.1c-1.4,1.4-2.1,3.7-2.1,6.9v13.3c0,3.2.7,5.5,2.1,6.9s3.9,2.1,7.5,2.1,6.1-.7,7.5-2.1c1.4-1.4,2.1-3.7,2.1-6.9Z"/><path class="cls-3" d="M368.4,522.4v-43.8h6.7v43c0,2,.3,3.3.8,4.1.5.8,1.5,1.1,2.8,1.1s2-.1,2.8-.3v6.1c-1,.3-2.3.5-3.9.5-2.9,0-5.2-.9-6.8-2.6-1.6-1.8-2.4-4.4-2.4-8Z"/><path class="cls-3" d="M405.1,533.2c-5.6,0-9.7-1.3-12.3-3.8-2.6-2.5-3.9-6.4-3.9-11.5v-13.3c0-10.2,5.4-15.3,16.3-15.3s9.7,1.3,12.3,3.8c2.6,2.5,3.9,6.4,3.9,11.5v13.3c0,10.2-5.4,15.3-16.3,15.3ZM414.6,518v-13.3c0-3.2-.7-5.5-2.1-6.9-1.4-1.4-3.9-2.1-7.5-2.1s-6.1.7-7.5,2.1c-1.4,1.4-2.1,3.7-2.1,6.9v13.3c0,3.2.7,5.5,2.1,6.9,1.4,1.4,3.9,2.1,7.5,2.1s6.1-.7,7.5-2.1,2.1-3.7,2.1-6.9Z"/><path class="cls-3" d="M462,501.9v2.3c0,4.2-1.2,7.4-3.7,9.5-2.5,2.1-6.4,3.2-11.7,3.2s-5.8.2-7.1.6c-1.1.3-1.6,1.2-1.6,2.6s.5,2.1,1.6,2.4c1.3.4,3.7.6,7.1.6,6.1,0,10.4.8,12.8,2.5,2.4,1.6,3.6,4.6,3.6,8.9s-1.2,7.7-3.7,9.4c-2.3,1.8-6.6,2.8-12.7,2.8s-10.6-.9-12.9-2.6c-2.4-1.8-3.6-4.6-3.6-8.4s1.3-6.9,3.9-8.7c-1.9-1-2.9-2.9-2.9-5.6s2-5.8,5.9-6.7c-4-1.7-6.1-5.2-6.1-10.5v-2.3c0-4,1.4-7.1,4.1-9.3,2.7-2.2,6.5-3.3,11.5-3.3s6.3.6,8.3,1.8l5.3-4.3,3.1,3.1-4.1,4.4c1.9,1.8,2.9,4.3,2.9,7.5ZM446.6,528.8c-3.1,0-5.4,0-6.9-.3-1.9,1.2-2.9,3.3-2.9,6.2s.7,4.2,2.1,5c1.4.8,4,1.2,7.7,1.2s6.2-.4,7.5-1.3c1.4-.9,2.1-2.6,2.1-5.1s-.7-4.1-2.1-4.7c-1.4-.7-3.9-1.1-7.5-1.1ZM455.3,504.2v-2.3c0-2.2-.7-3.9-2-5-1.4-1.1-3.6-1.7-6.6-1.7s-5.4.6-6.8,1.7c-1.4,1.1-2.1,2.8-2.1,5v2.3c0,2.4.6,4.1,2,5.2,1.3,1.1,3.6,1.6,6.9,1.6s5.5-.5,6.8-1.6c1.3-1.1,1.9-2.8,1.9-5.2Z"/><path class="cls-3" d="M472,481.7c0-1.2.4-2.2,1.2-3,.8-.8,1.8-1.2,2.9-1.2s2.2.4,3,1.2c.8.8,1.2,1.8,1.2,3s-.4,2.1-1.2,2.9c-.8.8-1.8,1.2-3,1.2s-2.1-.4-2.9-1.2c-.8-.8-1.2-1.8-1.2-2.9ZM479.5,532.6h-6.7v-42.6h6.7v42.6Z"/><path class="cls-3" d="M522.5,504.4c0,4.1-.2,7.2-.6,9.4h-24.4v4.8c0,3.1.8,5.3,2.5,6.5,1.7,1.2,4.5,1.8,8.6,1.8s9.2-.7,12.7-2.1v6.3c-3.6,1.4-7.8,2.1-12.7,2.1s-10.7-1.2-13.5-3.5c-2.8-2.3-4.2-6.2-4.2-11.6v-13.3c0-10.3,5.4-15.4,16.1-15.4s9,1.3,11.6,3.8c2.6,2.5,4,6.3,4,11.3ZM497.5,503v5.2h18.6v-5.2c0-5-3.1-7.6-9.3-7.6s-5.5.6-7,1.8c-1.5,1.2-2.3,3.1-2.3,5.7Z"/><path class="cls-3" d="M531.7,531.2v-6.3c4.7,1.4,9.2,2.1,13.7,2.1s5.1-.3,6.3-.9c1.2-.6,1.8-1.6,1.8-3.2s-.3-2-.8-2.6c-.6-.7-1.7-1.6-3.5-2.9l-10.1-6.9c-2.3-1.6-4-3.2-5.2-4.9-1.2-1.7-1.7-3.7-1.7-6.1,0-3.5,1.1-6.1,3.4-7.8,2.3-1.7,5.9-2.5,10.9-2.5s8,.7,11.8,2.1v6.3c-3.7-1.5-7.7-2.2-12-2.2s-4.8.3-5.9.9c-1.2.6-1.7,1.6-1.7,3.1s.3,2,.8,2.8c.5.7,1.5,1.6,2.9,2.6l9.9,6.9c2.7,1.8,4.6,3.5,5.8,5.1,1.2,1.6,1.7,3.5,1.7,5.9,0,3.6-1.2,6.2-3.6,7.9-2.4,1.7-6.2,2.5-11.5,2.5s-9-.7-13.2-2.1Z"/><path class="cls-3" d="M356.6,401.6c-.2-.7-.9-1.2-1.7-1,0,0-2.3,1-5.6,2.1,0,0-.2,0-.2,0-3.2,1-7.3,2-10.8,2s-7.6-1-10.8-2c0,0-.1,0-.2,0-3.2-1-5.6-2.1-5.6-2.1-.7-.2-1.5.2-1.7,1-.1.4,0,.8.2,1.2l17,26.8c.3.3.6.5,1,.5h0s0,0,0,0h0c.4,0,.8-.2,1-.5l17-26.8c.3-.3.3-.8.2-1.2Z"/><path class="cls-3" d="M137.3,273.6c0,16.2-.6,27.6-1.8,34.2H43v19.8c0,12.7,3.3,21.6,9.9,26.8,6.6,5.1,17.6,7.7,33.1,7.7s34.3-2.6,46.8-7.8v18.9c-13.3,5.2-28.8,7.8-46.6,7.8s-38.1-4.3-48.2-12.9c-10.1-8.6-15.1-22.7-15.1-42.5v-50.6c0-37.1,19.3-55.6,58-55.6s56.3,18,56.3,54ZM43,269.6v21.1h75.1v-21.1c0-21.3-12.6-31.9-37.7-31.9s-22.2,2.6-28.3,7.7c-6.1,5.1-9.1,13.2-9.1,24.3Z"/><path class="cls-3" d="M192.7,430h-20.1v-155.4c0-36.7,19.6-55.1,58.8-55.1s35,4.5,44.4,13.6c9.5,9.1,14.2,22.9,14.2,41.4v50.6c0,37.2-18.3,55.8-54.8,55.8s-37.1-6.9-42.6-20.7v69.7ZM270.1,325.7v-50.8c0-12.9-2.8-22.3-8.5-27.9s-15.7-8.5-30-8.5-24.9,2.8-30.6,8.4c-5.6,5.6-8.4,14.9-8.4,28v50.8c0,13.1,2.8,22.5,8.4,28,5.6,5.6,15.8,8.4,30.6,8.4s24.3-2.8,30-8.5c5.7-5.7,8.5-15,8.5-27.9Z"/><path class="cls-3" d="M348.2,378.7s-3.1,2.3-9.9,2.3-9.9-2.3-9.9-2.3v-156.8h19.8v156.8Z"/><path class="cls-3" d="M603.3,199c.2.7.9,1.2,1.7,1,0,0,2.3-1,5.6-2.1,0,0,.2,0,.2,0,3.2-1,7.3-2,10.8-2s7.6,1,10.8,2c0,0,.1,0,.2,0,3.2,1,5.6,2.1,5.6,2.1.7.2,1.5-.2,1.7-1,.1-.4,0-.8-.2-1.2l-17-26.8c-.3-.3-.6-.5-1-.5h0s0,0,0,0h0c-.4,0-.8.2-1,.5l-17,26.8c-.3.3-.3.8-.2,1.2Z"/><path class="cls-3" d="M611.6,221.9s3.1-2.3,9.9-2.3,9.9,2.3,9.9,2.3v156.8h-19.8v-156.8Z"/><path class="cls-3" d="M386.6,326.5v-52.4c0-36.4,19.8-54.5,59.3-54.5s25.9,2.2,38,6.6v19.3c-11.7-4.6-23.8-6.9-36.4-6.9s-25.9,2.7-31.8,8c-6,5.4-8.9,14.6-8.9,27.9v51.6c0,13.2,3.2,22.5,9.6,28,6.4,5.4,17.4,8.2,32.8,8.2s26-2,37.4-6v18.9c-12.3,4-25.1,6-38.5,6-21.3,0-36.8-4.4-46.7-13.1-9.9-8.7-14.8-22.6-14.8-41.4Z"/><path class="cls-3" d="M534,266.3v112.4h-19.9v-112.2c0-16.3,3.7-28.2,11.1-35.7,7.4-7.5,19.4-11.3,36-11.3s15,.6,21.1,1.8v19c-5.3-1.3-12.3-1.9-20.8-1.9s-17.4,2.1-21.4,6.4c-4,4.3-6,11.4-6,21.4Z"/><path class="cls-3" d="M669.7,373.4v-18.7c15.7,5.1,32.5,7.6,50.3,7.6s20-1.3,25-3.9c5-2.6,7.5-7.1,7.5-13.4s-1.2-8.6-3.7-11.8c-2.5-3.2-6.9-6.9-13.4-11.1l-38.2-26.6c-8.7-6.3-15-12.4-19.1-18.3-4.1-6-6.1-13.2-6.1-21.7,0-12.3,4.1-21.3,12.2-27.1,8.1-5.8,21-8.7,38.7-8.7s29.3,2.6,43.5,7.8v18.8c-13.5-5.3-28.2-8-44.3-8s-18.9,1.3-23.5,3.9c-4.6,2.6-6.9,7.1-6.9,13.3s1.2,8.4,3.5,11.6c2.3,3.2,6.3,7,12.1,11.3l38,26.6c7.1,5.4,11.7,9.1,13.9,11.1,3.3,2.7,6.2,6.6,8.9,11.9,2.7,5.3,4.1,10.9,4.1,16.8,0,12.7-4.2,21.9-12.7,27.7-8.5,5.7-22.2,8.6-41,8.6s-31.5-2.5-48.5-7.6Z"/><path class="cls-3" d="M828.3,430h-20.1v-155.4c0-36.7,19.6-55.1,58.8-55.1s35,4.5,44.4,13.6c9.5,9.1,14.2,22.9,14.2,41.4v50.6c0,37.2-18.3,55.8-54.8,55.8s-37.1-6.9-42.6-20.7v69.7ZM905.8,325.7v-50.8c0-12.9-2.8-22.3-8.5-27.9-5.7-5.7-15.7-8.5-30-8.5s-24.9,2.8-30.6,8.4c-5.6,5.6-8.4,14.9-8.4,28v50.8c0,13.1,2.8,22.5,8.4,28,5.6,5.6,15.8,8.4,30.6,8.4s24.3-2.8,30-8.5c5.7-5.7,8.5-15,8.5-27.9Z"/><path class="cls-3" d="M980.7,266.3v112.4h-19.9v-112.2c0-16.3,3.7-28.2,11.1-35.7,7.4-7.5,19.4-11.3,36-11.3s15,.6,21.1,1.8v19c-5.3-1.3-12.3-1.9-20.8-1.9s-17.4,2.1-21.4,6.4c-4,4.3-6,11.4-6,21.4Z"/><path class="cls-3" d="M1052.5,221.9v19.1h-2.6v-19.1h-6.8v-2.3h16.2v2.3h-6.8Z"/><path class="cls-3" d="M1079.5,223h-.2l-1.8,3.6-5.1,9.3-5.1-9.3-1.8-3.6h-.2v18h-2.5v-21.4h3.4l6.1,11.5h.2l6.1-11.5h3.3v21.4h-2.5v-18Z"/></svg>